<?xml version="1.0" encoding="utf-8"?>
<!-- Generator: Adobe Illustrator 19.0.0, SVG Export Plug-In . SVG Version: 6.00 Build 0)  -->
<svg version="1.1" xmlns="http://www.w3.org/2000/svg" xmlns:xlink="http://www.w3.org/1999/xlink" x="0px" y="0px"
	 viewBox="-49 -50 200 200" style="enable-background:new -49 -50 200 200;" xml:space="preserve">
<style type="text/css">
	.st0{fill:#46AB64;}
	.st1{fill:#BF3F2B;}
</style>
<g id="图层_2">
	<path class="st0" d="M37.3-8C27-2-9.2,25.6-12.8,36.6s7.2,44.6,12.5,49.2c5.3,4.6,46,28.5,50.4,28.5s45.8-16.5,52.8-24.2
		s15.6-42.4,15.8-47.2S108,14.5,102.8,10.2S66.3-11.6,62-12.3S37.3-8,37.3-8z"/>
</g>
<g id="图层_1">
	<path class="st1" d="M51.1-30.6c-44.6,0-80.7,36.2-80.7,80.7s36.2,80.7,80.7,80.7s80.7-36.2,80.7-80.7S95.7-30.6,51.1-30.6z
		 M106.9,59.5H60.4V106H41.8V59.5H-4.8V40.9h46.5l0-46.5h18.6v46.5h46.5V59.5z"/>
</g>
</svg>
